<?xml version="1.0" encoding="utf-8"?>
<!-- Generator: Adobe Illustrator 25.2.3, SVG Export Plug-In . SVG Version: 6.00 Build 0)  -->
<!DOCTYPE svg PUBLIC "-//W3C//DTD SVG 1.1//EN" "http://www.w3.org/Graphics/SVG/1.1/DTD/svg11.dtd" [
	<!ENTITY ns_extend "http://ns.adobe.com/Extensibility/1.0/">
	<!ENTITY ns_ai "http://ns.adobe.com/AdobeIllustrator/10.0/">
	<!ENTITY ns_graphs "http://ns.adobe.com/Graphs/1.0/">
	<!ENTITY ns_vars "http://ns.adobe.com/Variables/1.0/">
	<!ENTITY ns_imrep "http://ns.adobe.com/ImageReplacement/1.0/">
	<!ENTITY ns_sfw "http://ns.adobe.com/SaveForWeb/1.0/">
	<!ENTITY ns_custom "http://ns.adobe.com/GenericCustomNamespace/1.0/">
	<!ENTITY ns_adobe_xpath "http://ns.adobe.com/XPath/1.0/">
]>
<svg version="1.1" id="Layer_1" xmlns:x="&ns_extend;" xmlns:i="&ns_ai;" xmlns:graph="&ns_graphs;"
	 xmlns="http://www.w3.org/2000/svg" xmlns:xlink="http://www.w3.org/1999/xlink" x="0px" y="0px" viewBox="0 0 391 102"
	 style="enable-background:new 0 0 391 102;" xml:space="preserve">
<style type="text/css">
	.st0{fill:#FFFFFF;}
	.st1{fill:#B10097;}
	.st2{fill:none;}
</style>
<metadata>
	<sfw  xmlns="&ns_sfw;">
		<slices></slices>
		<sliceSourceBounds  bottomLeftOrigin="true" height="102" width="389.763855" x="0" y="-102"></sliceSourceBounds>
	</sfw>
</metadata>
<g>
	<path class="st0" d="M135.4865112,29.5450897c-4.046875,0-7.2783203-2.1015625-7.2783203-6.4375V11.3624725h3.7832031v11.2988281
		c0,2.8378906,2.1289062,3.9150391,3.9414062,3.9150391c1.9443359,0,3.7578125-1.0771484,3.7578125-3.8105469V11.3624725h3.7314453
		v11.4033203C143.4220581,27.1808319,140.2687378,29.5450897,135.4865112,29.5450897z"/>
	<path class="st0" d="M156.1964722,29.22966v-8.0927734c0-1.8652344-0.9980469-2.8115234-2.6533203-2.8115234
		c-0.9462891,0-1.8652344,0.2890625-2.5224609,0.7099609V29.22966h-3.4951172V15.9611053l3.3632812-0.2626953l-0.0517578,1.8388672
		h0.1044922c0.9726562-1.0771484,2.5751953-2.0234375,4.4150391-2.0234375c2.3642578,0,4.3085938,1.5771484,4.3085938,4.5986328
		V29.22966H156.1964722z"/>
	<path class="st0" d="M165.1085815,13.3595428c-0.9990234,0-1.8398438-0.8408203-1.8398438-1.8652344
		c0-1.0253906,0.8408203-1.8134766,1.8398438-1.8134766c1.0244141,0,1.8388672,0.7880859,1.8388672,1.8134766
		C166.9474487,12.5187225,166.1329956,13.3595428,165.1085815,13.3595428z M163.3478394,29.22966V15.8292694h3.5214844V29.22966
		H163.3478394z"/>
	<path class="st0" d="M177.0656128,29.3087616h-2.9433594l-5.3603516-13.4794922h3.9414062l2.3916016,7.0947266
		c0.3935547,1.1035156,0.7089844,2.9951172,0.7089844,2.9951172s0.3154297-1.8652344,0.7099609-2.9951172l2.390625-7.0947266
		h3.546875L177.0656128,29.3087616z"/>
	<path class="st0" d="M195.5402222,23.0284882h-8.8808594c0.0791016,2.2070312,1.5507812,3.8886719,4.0205078,3.8886719
		c1.5761719,0,2.9951172-0.3408203,4.5712891-0.9453125l-0.1572266,2.4697266
		c-1.6289062,0.6572266-3.2314453,1.0771484-5.3603516,1.0771484c-4.0205078,0-6.4638672-2.7851562-6.4638672-6.7265625
		c0-4.2832031,2.7851562-7.2783203,6.7265625-7.2783203c3.8105469,0,5.6757812,2.6015625,5.6757812,5.5966797
		C195.6720581,21.7150116,195.6193237,22.5558319,195.5402222,23.0284882z M189.7072144,17.7999725
		c-1.6816406,0-2.7324219,1.6025391-2.9160156,3.2060547h5.6484375
		C192.4396362,19.245285,191.4415894,17.7999725,189.7072144,17.7999725z"/>
	<path class="st0" d="M206.2911987,19.4816132c-0.6835938-0.3945312-1.5761719-0.6572266-2.4169922-0.6572266
		c-0.8144531,0-1.6035156,0.3417969-2.0498047,0.8144531V29.22966h-3.4951172V15.9611053l3.3115234-0.2890625l-0.1054688,2.390625
		h0.1054688c0.6826172-1.4980469,1.9707031-2.5488281,3.4150391-2.5488281c0.6308594,0,1.3408203,0.1582031,1.7871094,0.4208984
		L206.2911987,19.4816132z"/>
	<path class="st0" d="M212.0480347,29.5187225c-1.734375,0-3.1269531-0.3671875-4.2832031-0.9980469l0.3945312-2.6279297
		c1.2080078,0.6308594,2.7060547,1.0507812,3.9941406,1.0507812c1.1035156,0,2.1015625-0.3671875,2.1015625-1.3398438
		c0-2.1279297-6.0693359-1.6552734-6.0693359-5.9384766c0-2.7060547,2.4697266-4.1513672,5.3339844-4.1513672
		c1.4189453,0,2.8896484,0.3945312,3.8623047,0.8144531l-0.3945312,2.5224609
		c-1.0244141-0.3935547-2.390625-0.7617188-3.6523438-0.7617188c-0.9453125,0-1.7597656,0.3681641-1.7597656,1.1298828
		c0,2.1015625,6.0957031,1.6816406,6.0957031,5.9121094C217.6710815,28.0470428,215.1222534,29.5187225,212.0480347,29.5187225z"/>
	<path class="st0" d="M222.1925659,13.3595428c-0.9990234,0-1.8398438-0.8408203-1.8398438-1.8652344
		c0-1.0253906,0.8408203-1.8134766,1.8398438-1.8134766c1.0244141,0,1.8388672,0.7880859,1.8388672,1.8134766
		C224.0314331,12.5187225,223.21698,13.3595428,222.1925659,13.3595428z M220.4318237,29.22966V15.8292694h3.5214844V29.22966
		H220.4318237z"/>
	<path class="st0" d="M231.7589722,29.5187225c-2.3642578,0-3.8886719-1.4716797-3.8886719-3.7304688
		c0-0.7626953,0.0791016-4.2568359,0.0791016-6.359375V18.298996h-1.2617188V16.932785l4.3359375-4.0205078h0.3417969v2.9169922
		h4.2558594v2.4697266h-4.2558594c0,0.2099609-0.0527344,4.4931641-0.0527344,6.3066406
		c0,1.4189453,0.8408203,2.0488281,2.1279297,2.0488281c0.6835938,0,1.4980469-0.078125,2.2861328-0.3408203v2.4169922
		C234.5968628,29.2032928,233.257019,29.5187225,231.7589722,29.5187225z"/>
	<path class="st0" d="M244.5050659,29.2560272c-1.4189453,3.6259766-3.4160156,6.7529297-6.6738281,6.7529297
		c-1.0507812,0-1.9970703-0.2626953-2.5751953-0.6044922l0.5517578-2.5224609
		c0.5517578,0.2099609,1.1826172,0.3417969,1.8916016,0.3417969c1.8134766,0,3.0224609-2.390625,3.7578125-4.125
		l-5.3076172-13.2695312h3.9414062l2.4433594,6.9628906c0.3681641,1.0771484,0.6835938,3.0214844,0.6835938,3.0214844
		s0.3935547-1.8916016,0.7617188-3.0214844l2.2597656-6.9628906h3.4941406L244.5050659,29.2560272z"/>
	<path class="st0" d="M262.6915894,29.5187225c-4.0458984,0-6.6474609-2.9951172-6.6474609-6.7792969
		c0-4.2304688,2.7851562-7.2255859,7.1992188-7.2255859c4.046875,0,6.6484375,2.9951172,6.6484375,6.7792969
		C269.8917847,26.5236053,267.0802612,29.5187225,262.6915894,29.5187225z M262.928894,18.089035
		c-2.0234375,0-3.2851562,1.9179688-3.2851562,4.3359375c0,2.4433594,1.3144531,4.5185547,3.3632812,4.5185547
		c1.9707031,0,3.3115234-1.9179688,3.3115234-4.3085938C266.3185425,20.1652069,265.0040894,18.089035,262.928894,18.089035z"/>
	<path class="st0" d="M279.9591675,11.5196991c-0.4990234-0.1835938-1.1298828-0.3408203-1.7080078-0.3408203
		c-0.9990234,0-1.7871094,0.6035156-1.7871094,2.1279297v2.5224609h3.2587891v2.5224609h-3.2587891V29.22966h-3.4941406V18.3517303
		h-1.6816406v-2.1279297l1.6816406-0.3945312V13.464035c0-3.0742188,2.1806641-4.9394531,5.0976562-4.9394531
		c0.8925781,0,1.8388672,0.2626953,2.390625,0.5517578L279.9591675,11.5196991z"/>
	<path class="st0" d="M298.8019409,29.22966l-1.6289062-4.703125h-5.9648438l-1.5761719,4.703125h-3.8632812l6.4902344-17.8671875
		h4.1513672l6.4902344,17.8671875H298.8019409z M294.6242065,16.6173553
		c-0.2363281-0.7089844-0.4472656-2.1015625-0.4472656-2.1015625s-0.2099609,1.3398438-0.4726562,2.1015625l-1.8388672,5.3603516
		h4.6240234L294.6242065,16.6173553z"/>
	<path class="st0" d="M313.6515503,29.22966v-8.0927734c0-1.8652344-0.9980469-2.8115234-2.6533203-2.8115234
		c-0.9462891,0-1.8652344,0.2890625-2.5224609,0.7099609V29.22966h-3.4951172V15.9611053l3.3632812-0.2626953l-0.0517578,1.8388672
		h0.1044922c0.9726562-1.0771484,2.5751953-2.0234375,4.4150391-2.0234375c2.3642578,0,4.3085938,1.5771484,4.3085938,4.5986328
		V29.22966H313.6515503z"/>
	<path class="st0" d="M324.7179565,29.5187225c-2.3642578,0-3.8886719-1.4716797-3.8886719-3.7304688
		c0-0.7626953,0.0791016-4.2568359,0.0791016-6.359375V18.298996h-1.2617188V16.932785l4.3359375-4.0205078h0.3417969v2.9169922
		h4.2558594v2.4697266h-4.2558594c0,0.2099609-0.0527344,4.4931641-0.0527344,6.3066406
		c0,1.4189453,0.8408203,2.0488281,2.1279297,2.0488281c0.6835938,0,1.4980469-0.078125,2.2861328-0.3408203v2.4169922
		C327.5558472,29.2032928,326.2160034,29.5187225,324.7179565,29.5187225z"/>
	<path class="st0" d="M345.741394,29.3087616h-2.7851562l-2.5488281-6.6474609
		c-0.3945312-1.0253906-0.6572266-2.7851562-0.6572266-2.7851562s-0.3945312,1.7333984-0.7617188,2.7851562l-2.4707031,6.6474609
		h-2.7060547l-4.5976562-13.4794922h3.8359375l1.8916016,6.5957031c0.3154297,1.0507812,0.6308594,3.0742188,0.6308594,3.0742188
		s0.3935547-1.9707031,0.7617188-3.0488281l2.3388672-6.6210938h2.5751953l2.4433594,6.6210938
		c0.4199219,1.078125,0.7353516,2.9960938,0.7353516,2.9960938s0.2890625-1.9707031,0.6308594-3.0478516l1.8652344-6.5693359
		h3.4423828L345.741394,29.3087616z"/>
	<path class="st0" d="M363.6661987,23.0284882h-8.8808594c0.0791016,2.2070312,1.5507812,3.8886719,4.0205078,3.8886719
		c1.5761719,0,2.9951172-0.3408203,4.5712891-0.9453125l-0.1572266,2.4697266
		c-1.6289062,0.6572266-3.2314453,1.0771484-5.3603516,1.0771484c-4.0205078,0-6.4638672-2.7851562-6.4638672-6.7265625
		c0-4.2832031,2.7851562-7.2783203,6.7265625-7.2783203c3.8105469,0,5.6757812,2.6015625,5.6757812,5.5966797
		C363.7980347,21.7150116,363.7453003,22.5558319,363.6661987,23.0284882z M357.8331909,17.7999725
		c-1.6816406,0-2.7324219,1.6025391-2.9160156,3.2060547h5.6484375
		C360.5656128,19.245285,359.5675659,17.7999725,357.8331909,17.7999725z"/>
	<path class="st0" d="M374.4161987,19.4816132c-0.6835938-0.3945312-1.5761719-0.6572266-2.4169922-0.6572266
		c-0.8144531,0-1.6035156,0.3417969-2.0498047,0.8144531V29.22966h-3.4951172V15.9611053l3.3115234-0.2890625l-0.1054688,2.390625
		h0.1054688c0.6826172-1.4980469,1.9707031-2.5488281,3.4150391-2.5488281c0.6308594,0,1.3408203,0.1582031,1.7871094,0.4208984
		L374.4161987,19.4816132z"/>
	<path class="st0" d="M382.4328003,29.4142303c-0.7363281,0-1.5507812-0.1845703-1.9970703-0.4208984v6.9365234h-3.4951172
		v-19.96875l3.3632812-0.2626953l-0.0517578,1.7861328h0.1044922c0.9726562-1.1826172,2.4960938-1.9707031,3.9941406-1.9707031
		c3.3105469,0,5.4130859,2.8115234,5.4130859,6.5429688C389.763855,26.470871,386.8995972,29.4142303,382.4328003,29.4142303z
		 M382.826355,18.2726288c-0.8925781,0-1.7861328,0.2890625-2.390625,0.7099609v7.3828125
		c0.4990234,0.3417969,1.3925781,0.578125,2.1542969,0.578125c2.3125,0,3.6259766-1.8388672,3.6259766-4.2822266
		C386.2160034,19.9279022,384.8761597,18.2726288,382.826355,18.2726288z"/>
</g>
<g>
	<path class="st1" d="M96.9000015,102H5.0999999C2.2950001,102,0,99.7050018,0,96.9000015V5.0999999
		C0,2.2950001,2.2950001,0,5.0999999,0h91.8000031C99.7050018,0,102,2.2950001,102,5.0999999v91.8000031
		C102,99.7050018,99.7050018,102,96.9000015,102z"/>
	<path class="st0" d="M65.4393311,54.0225143c0.4325027,12.3328857-4.6385117,21.2498322-15.8150101,21.2498322
		c-8.70467,0-17.5176468-6.5201035-17.5176468-19.4506874V21.144659H17.7737331v35.4050369
		c0,13.4108734,8.9826431,27.1654587,29.6760654,27.1654587c20.0859604,0,28.1678848-14.4148712,28.2588959-26.368454
		c14.665535,2.260498,21.3881149-8.6823463,19.4711151-16.1329613c-2.5612259,2.9579849-6.6571045,5.5772667-19.4536514,1.9484215
		V21.144659H65.4393311v18.5292034C45.3423157,33.076992,40.5864944,51.3857727,40.5864944,51.3857727
		S49.9853058,46.2166176,65.4393311,54.0225143"/>
</g>
<path class="st1" d="M130.9607391,90.3341064c-1.5654297,0-2.8347168-1.269043-2.8347168-2.8344727V46.1988525
	c0-1.5654297,1.2692871-2.8344727,2.8347168-2.8344727s2.8347168,1.269043,2.8347168,2.8344727v41.3007812
	C133.7954559,89.0650635,132.5261688,90.3341064,130.9607391,90.3341064z"/>
<g>
	<path class="st0" d="M160.7783203,61.5478516c-1.0537109,0.9609375-2.387207,1.5498047-3.8447266,1.5498047
		c-3.90625,0-6.3251953-2.9140625-6.3251953-10.1386719c0-6.7900391,2.3256836-10.1074219,6.2324219-10.1074219
		c1.5810547,0,2.8837891,0.5263672,3.96875,1.5185547l-0.8994141,3.1005859
		c-0.7749023-0.8369141-1.6430664-1.4882812-2.6972656-1.4882812c-2.1704102,0-3.0693359,2.2949219-3.0693359,6.8837891
		c0,4.8369141,1.0229492,7.1005859,3.1005859,7.1005859c0.9921875,0,1.8291016-0.4960938,2.6660156-1.4882812
		L160.7783203,61.5478516z"/>
	<path class="st0" d="M162.0478516,55.5322266c0-4.8369141,1.8911133-7.5957031,5.2705078-7.5957031
		c3.3798828,0,5.1782227,2.6347656,5.1782227,7.5341797c0,4.8681641-1.8911133,7.6269531-5.2709961,7.6269531
		S162.0478516,60.4628906,162.0478516,55.5322266z M169.0859375,55.5322266c0-3.3486328-0.5581055-4.6503906-1.8291016-4.6503906
		c-1.2402344,0-1.7988281,1.3330078-1.7988281,4.6201172c0,3.3486328,0.5585938,4.6503906,1.7988281,4.6503906
		C168.527832,60.1523438,169.0859375,58.8505859,169.0859375,55.5322266z"/>
	<path class="st0" d="M174.9121094,59.0048828c0.8374023,0.7138672,1.8603516,1.1787109,2.7910156,1.1787109
		c0.9921875,0,1.5498047-0.5273438,1.5498047-1.3642578s-0.4960938-1.3642578-1.7363281-2.046875
		c-2.0151367-1.0849609-3.2553711-2.5419922-3.2553711-4.7128906c0-2.5107422,1.8603516-4.1230469,4.4956055-4.1230469
		c1.3027344,0,2.6357422,0.4023438,3.4726562,0.9921875l-0.6201172,2.9765625
		c-0.8369141-0.6513672-1.8291016-1.0546875-2.6660156-1.0546875c-0.8681641,0-1.4267578,0.4345703-1.4267578,1.2402344
		c0,0.7441406,0.4033203,1.2402344,1.6748047,1.953125c2.1391602,1.2099609,3.3173828,2.6044922,3.3173828,4.7128906
		c0,2.6357422-1.8603516,4.3408203-4.4960938,4.3408203c-1.3017578,0-2.7900391-0.4335938-3.7207031-1.1162109
		L174.9121094,59.0048828z"/>
	<path class="st0" d="M187.4677734,62.6640625L183.40625,48.3701172h3.3793945l2.1704102,9.4257812l1.7363281-9.4257812h3.3486328
		l-3.9067383,15.90625c-0.7133789,2.9453125-1.984375,5.4257812-4.5268555,5.4257812
		c-0.8681641,0-1.7050781-0.2480469-2.5424805-0.8681641l0.6821289-2.7597656
		c0.5581055,0.4960938,1.1474609,0.7138672,1.550293,0.7138672c0.6508789,0,1.1782227-0.3720703,1.4575195-1.3955078
		L187.4677734,62.6640625z"/>
	<path class="st0" d="M195.8989258,59.0048828c0.8374023,0.7138672,1.8603516,1.1787109,2.7905273,1.1787109
		c0.9921875,0,1.550293-0.5273438,1.550293-1.3642578s-0.4960938-1.3642578-1.7363281-2.046875
		c-2.0151367-1.0849609-3.2553711-2.5419922-3.2553711-4.7128906c0-2.5107422,1.8603516-4.1230469,4.4956055-4.1230469
		c1.3022461,0,2.6352539,0.4023438,3.4726562,0.9921875l-0.6201172,2.9765625
		c-0.8374023-0.6513672-1.8295898-1.0546875-2.6665039-1.0546875c-0.8681641,0-1.4262695,0.4345703-1.4262695,1.2402344
		c0,0.7441406,0.402832,1.2402344,1.6743164,1.953125c2.1396484,1.2099609,3.3173828,2.6044922,3.3173828,4.7128906
		c0,2.6357422-1.8603516,4.3408203-4.4956055,4.3408203c-1.3022461,0-2.7905273-0.4335938-3.7207031-1.1162109
		L195.8989258,59.0048828z"/>
	<path class="st0" d="M205.2294922,56.3388672l0.0927734-2.8525391h5.953125l0.0932617,2.8525391H205.2294922z"/>
	<path class="st0" d="M213.7856445,62.6640625V43.2851562h3.4106445v16.2783203h4.7128906v3.1005859H213.7856445z"/>
	<path class="st0" d="M233.2861328,62.9121094c-1.6123047,0.3720703-2.9765625-0.0625-3.6894531-1.4882812
		c-0.6201172,0.9921875-1.5195312,1.6738281-2.8837891,1.6738281c-1.8291016,0-3.2553711-1.5498047-3.2553711-3.90625
		c0-2.5732422,1.7983398-4.9609375,5.8598633-5.2714844v-0.8369141c0-1.4570312-0.5576172-2.1699219-1.7978516-2.1699219
		c-0.8994141,0-2.0776367,0.5888672-3.0698242,1.4882812l-0.5581055-2.9150391
		c0.9921875-0.8994141,2.5732422-1.5498047,4.1547852-1.5498047c3.7514648,0,4.5581055,2.5419922,4.5581055,5.890625v5.3330078
		c0,0.7441406,0.2480469,1.0234375,0.9609375,1.0234375L233.2861328,62.9121094z M229.3173828,56.0283203
		c-1.7050781,0.3417969-2.5112305,1.4580078-2.5112305,2.5429688c0,1.0537109,0.5268555,1.5810547,1.2094727,1.5810547
		c0.5268555,0,0.9921875-0.4960938,1.3017578-1.0537109V56.0283203z"/>
	<path class="st0" d="M235.7646484,63.0976562V42.0136719l3.2861328-0.5263672v7.9990234
		c0.5893555-0.9296875,1.4575195-1.5498047,2.6044922-1.5498047c2.4804688,0,4.0620117,2.7285156,4.0620117,7.3789062
		c0,4.9296875-1.9223633,7.7822266-4.7128906,7.7822266c-1.0541992,0-1.7670898-0.3095703-2.2944336-0.6201172
		L235.7646484,63.0976562z M239.0507812,59.4707031c0.2792969,0.3720703,0.7753906,0.6816406,1.3027344,0.6816406
		c1.3017578,0,1.953125-1.5195312,1.953125-4.6201172c0-3.0068359-0.6821289-4.5576172-1.8291016-4.5576172
		c-0.5893555,0-1.0854492,0.4345703-1.4267578,1.0546875V59.4707031z"/>
	<path class="st0" d="M283.546875,61.5166016c-0.8994141,1.0234375-2.078125,1.5507812-3.4726562,1.5507812
		c-3.6591797,0-5.7675781-3.1943359-5.7675781-10.0771484c0-6.5419922,2.046875-10.1083984,5.6738281-10.1083984
		c1.4882812,0,2.6982422,0.5273438,3.6279297,1.5820312l-0.6201172,2.2011719
		c-0.8369141-0.9609375-1.7363281-1.6435547-2.8828125-1.6435547c-2.4501953,0-3.4111328,2.8212891-3.4111328,7.8759766
		c0,5.2705078,1.1787109,8.0302734,3.5039062,8.0302734c0.9609375,0,1.8916016-0.4960938,2.7285156-1.6435547L283.546875,61.5166016
		z"/>
	<path class="st0" d="M285.2802734,55.5947266c0-4.8994141,1.7060547-7.5341797,4.6826172-7.5341797
		s4.5878906,2.5419922,4.5878906,7.4716797c0,4.8994141-1.7666016,7.5351562-4.6816406,7.5351562
		C286.9238281,63.0673828,285.2802734,60.5244141,285.2802734,55.5947266z M292.2568359,55.5947266
		c0-3.7207031-0.7441406-5.5498047-2.3564453-5.5498047s-2.3251953,1.890625-2.3251953,5.5185547
		c0,3.7207031,0.7128906,5.5195312,2.3251953,5.5195312S292.2568359,59.1601562,292.2568359,55.5947266z"/>
	<path class="st0" d="M297.1533203,55.9355469l0.0615234-1.984375h5.4570312l0.0625,1.984375H297.1533203z"/>
	<path class="st0" d="M305.8642578,62.6640625V43.2851562h3.7509766c4.03125,0,6.3564453,3.0693359,6.3564453,9.6738281
		c0,6.2939453-2.2626953,9.7050781-6.2626953,9.7050781H305.8642578z M309.4609375,60.4931641
		c2.7597656,0,4.1230469-2.4492188,4.1230469-7.4414062c0-5.1464844-1.3632812-7.5957031-4.1230469-7.5957031h-1.2714844v15.0371094
		H309.4609375z"/>
	<path class="st0" d="M326.4179688,61.7333984c-0.7753906,0.8378906-1.6123047,1.3339844-2.9765625,1.3339844
		c-3.0693359,0-4.7128906-2.5429688-4.7128906-7.4726562c0-4.9921875,1.984375-7.5341797,4.5273438-7.5341797
		c2.5732422,0,3.7207031,2.1386719,3.7207031,5.7666016c0,0.3720703-0.0625,1.5507812-0.1552734,2.1708984h-5.8291016
		c0.0625,3.4414062,0.8681641,5.0849609,2.6972656,5.0849609c0.9609375,0,1.6123047-0.6201172,2.2324219-1.4580078
		L326.4179688,61.7333984z M324.8681641,53.734375c0-2.6669922-0.6201172-3.6894531-1.7363281-3.6894531
		c-1.0849609,0-1.984375,1.5185547-2.1083984,4.2167969h3.8447266V53.734375z"/>
	<path class="st0" d="M329.703125,59.9970703c0.8369141,0.6826172,1.7363281,1.1162109,2.6347656,1.1162109
		c1.1787109,0,1.8916016-0.8681641,1.8916016-2.0146484c0-1.1474609-0.6201172-1.9228516-2.1083984-2.7910156
		c-1.8291016-1.0849609-2.9140625-2.3564453-2.9140625-4.4023438c0-2.2949219,1.7363281-3.8447266,3.90625-3.8447266
		c1.1474609,0,2.2011719,0.4648438,2.8837891,0.9609375l-0.4658203,1.984375
		c-0.7744141-0.5585938-1.5810547-0.9609375-2.4492188-0.9609375c-1.0234375,0-1.7675781,0.6816406-1.7675781,1.8291016
		c0,1.0849609,0.4658203,1.7978516,1.984375,2.7285156c1.7988281,1.1162109,3.0390625,2.3876953,3.0390625,4.4648438
		c0,2.3876953-1.7363281,4-3.9375,4c-1.1474609,0-2.3261719-0.4345703-3.1630859-1.0859375L329.703125,59.9970703z"/>
	<path class="st0" d="M338.7851562,43.4716797c0-0.9619141,0.5585938-1.7988281,1.5810547-1.7988281
		c1.0234375,0,1.5810547,0.8369141,1.5810547,1.7988281c0,0.9609375-0.5576172,1.7978516-1.5810547,1.7978516
		C339.34375,45.2695312,338.7851562,44.4326172,338.7851562,43.4716797z M339.25,62.6640625V48.5253906l2.2011719-0.4033203
		v14.5419922H339.25z"/>
	<path class="st0" d="M351.7441406,50.6025391c0.4648438,0.6513672,0.6826172,1.8603516,0.6826172,2.8525391
		c0,3.4414062-1.7363281,5.1777344-4.03125,5.1777344c-0.2783203,0-0.7441406-0.0302734-1.1777344-0.2480469
		c-0.4658203,0.2177734-0.8681641,0.6826172-0.8681641,1.3642578c0,0.8066406,0.6503906,1.3642578,1.8291016,1.3642578
		c0,0,0.9306641,0,0.9609375,0c2.6669922,0,4.7128906,1.1787109,4.7128906,3.8759766
		c0,2.6669922-2.2011719,5.0234375-5.3330078,5.0234375c-2.6660156,0-4.6816406-1.3642578-4.6816406-3.8759766
		c0-1.5507812,1.1162109-2.7910156,2.4492188-3.2246094c-1.0849609-0.3720703-1.7675781-1.5507812-1.7675781-2.6357422
		c0-1.1777344,0.7138672-2.0771484,1.6748047-2.5732422c-0.9609375-0.6826172-1.6123047-2.2324219-1.6123047-4.3095703
		c0-3.5351562,1.7050781-5.3330078,3.96875-5.3330078c0.9296875,0,1.8603516,0.4335938,2.2949219,0.8369141l2.7900391-0.2480469
		l0.0927734,2.2011719L351.7441406,50.6025391z M346.0078125,65.7646484c0,1.4257812,0.8691406,2.5117188,2.6982422,2.5117188
		c1.6123047,0,2.8525391-0.9921875,2.8525391-2.7910156c0-1.5195312-0.7441406-2.2324219-2.6357422-2.2324219
		c-0.3720703,0-0.9609375,0-1.3642578-0.0615234C346.7216797,63.625,346.0078125,64.4316406,346.0078125,65.7646484z
		 M350.2246094,53.3623047c0-2.2636719-0.5888672-3.4111328-1.6425781-3.4111328
		c-0.9921875,0-1.7363281,0.8378906-1.7363281,3.5039062c0,2.4189453,0.6503906,3.4111328,1.6738281,3.4111328
		C349.5117188,56.8662109,350.2246094,55.9042969,350.2246094,53.3623047z"/>
	<path class="st0" d="M361.7568359,62.6640625V52.0595703c0-1.3017578-0.5576172-1.8603516-1.4570312-1.8603516
		c-0.7441406,0-1.5810547,0.7138672-2.2636719,1.6435547v10.8212891h-2.2011719V48.5253906l2.2011719-0.4033203v1.8291016
		c0.7441406-1.2705078,1.9541016-1.890625,3.0390625-1.890625c1.8603516,0,2.8837891,1.7050781,2.8837891,3.5654297v11.0380859
		H361.7568359z"/>
	<path class="st0" d="M372.203125,55.5947266c0-4.8994141,1.7050781-7.5341797,4.6816406-7.5341797
		s4.5888672,2.5419922,4.5888672,7.4716797c0,4.8994141-1.7675781,7.5351562-4.6826172,7.5351562
		C373.8457031,63.0673828,372.203125,60.5244141,372.203125,55.5947266z M379.1787109,55.5947266
		c0-3.7207031-0.7441406-5.5498047-2.3564453-5.5498047s-2.3251953,1.890625-2.3251953,5.5185547
		c0,3.7207031,0.7128906,5.5195312,2.3251953,5.5195312S379.1787109,59.1601562,379.1787109,55.5947266z"/>
	<path class="st0" d="M384.3857422,62.6640625V50.6025391l-1.4257812-0.1552734v-1.4882812l1.4257812-0.5576172V45.734375
		c0-3.7207031,1.5195312-4.6503906,3.2246094-4.6503906c0.6826172,0,1.3330078,0.2167969,1.984375,0.6201172l-0.4335938,2.015625
		c-0.4345703-0.3417969-0.8681641-0.5898438-1.2714844-0.5898438c-0.7753906,0-1.3017578,0.5585938-1.3017578,2.3876953v2.9453125
		h2.5419922l-0.1240234,1.984375h-2.4179688v12.2167969H384.3857422z"/>
	<path class="st0" d="M160.0966797,89.1171875c-0.8994141,1.0224609-2.0776367,1.5498047-3.4726562,1.5498047
		c-3.6591797,0-5.7675781-3.1933594-5.7675781-10.0771484c0-6.5419922,2.046875-10.1074219,5.6743164-10.1074219
		c1.4882812,0,2.6977539,0.5273438,3.6274414,1.5810547l-0.6201172,2.2011719
		c-0.8369141-0.9609375-1.7363281-1.6425781-2.8833008-1.6425781c-2.449707,0-3.4106445,2.8212891-3.4106445,7.875
		c0,5.2714844,1.1782227,8.0302734,3.5039062,8.0302734c0.9609375,0,1.8911133-0.4960938,2.7285156-1.6425781
		L160.0966797,89.1171875z"/>
	<path class="st0" d="M164.7143555,90.2021484l-3.6899414-14.1386719h2.2016602l2.5112305,10.4794922l2.4189453-10.4794922
		h2.2011719l-4.7749023,18.4482422c-0.5268555,2.015625-1.7055664,3.1005859-3.0385742,3.1005859
		c-0.6513672,0-1.3330078-0.2167969-2.0463867-0.7441406l0.465332-1.953125
		c0.5576172,0.4648438,1.0229492,0.6816406,1.4257812,0.6816406c0.5893555,0,1.0546875-0.4023438,1.3027344-1.3945312
		L164.7143555,90.2021484z"/>
	<path class="st0" d="M172.6806641,90.6669922V69.3662109l2.2011719-0.4033203v8.2480469
		c0.6201172-0.9306641,1.5507812-1.5507812,2.6044922-1.5507812c2.3876953,0,3.8759766,2.9765625,3.8759766,7.3173828
		c0,4.6201172-1.7050781,7.6894531-4.3720703,7.6894531c-0.9296875,0-1.8291016-0.2167969-2.4492188-0.6816406
		L172.6806641,90.6669922z M174.8818359,87.8769531c0.4033203,0.4648438,1.0234375,0.8056641,1.6435547,0.8056641
		c1.6123047,0,2.5424805-2.2939453,2.5424805-5.5498047c0-3.1005859-0.8681641-5.2714844-2.3564453-5.2714844
		c-0.7133789,0-1.3334961,0.4658203-1.8295898,1.2402344V87.8769531z"/>
	<path class="st0" d="M191.7158203,89.3339844c-0.7753906,0.8369141-1.6123047,1.3330078-2.9765625,1.3330078
		c-3.0698242,0-4.7128906-2.5419922-4.7128906-7.4726562c0-4.9912109,1.984375-7.5341797,4.5263672-7.5341797
		c2.5737305,0,3.7207031,2.1396484,3.7207031,5.7675781c0,0.3720703-0.0615234,1.5498047-0.1547852,2.1699219h-5.8291016
		c0.0620117,3.4414062,0.8681641,5.0849609,2.6977539,5.0849609c0.9609375,0,1.6123047-0.6201172,2.2324219-1.4570312
		L191.7158203,89.3339844z M190.1650391,81.3339844c0-2.6660156-0.6201172-3.6894531-1.7363281-3.6894531
		c-1.0849609,0-1.984375,1.5195312-2.1083984,4.2167969h3.8447266V81.3339844z"/>
	<path class="st0" d="M195.1860352,90.2636719V76.125l2.2016602-0.4023438v2.5107422
		c0.4960938-1.6123047,1.3330078-2.5732422,2.4804688-2.5732422c0.5576172,0,1.0849609,0.2792969,1.519043,0.6513672
		l-0.465332,2.2939453c-0.3720703-0.3408203-0.8056641-0.6816406-1.2709961-0.6816406
		c-0.8061523,0-1.6430664,1.2089844-2.2631836,3.4101562v8.9296875H195.1860352z"/>
	<path class="st0" d="M202.2539062,83.5361328l0.0620117-1.984375h5.4570312l0.0620117,1.984375H202.2539062z"/>
	<path class="st0" d="M210.9023438,90.2636719V70.8857422h2.5429688c4.0615234,0,6.1699219,2.2011719,6.1699219,6.1699219
		c0,4.3720703-2.3251953,6.5419922-6.1083984,6.5419922h-0.2788086v6.6660156H210.9023438z M213.5068359,81.4892578
		c2.7285156,0,3.7207031-1.4882812,3.7207031-4.3408203c0-2.7597656-1.1162109-4.0927734-3.7207031-4.0927734h-0.2788086v8.4335938
		H213.5068359z"/>
	<path class="st0" d="M228.2636719,90.2636719V79.6601562c0-1.3027344-0.5585938-1.8603516-1.4575195-1.8603516
		c-0.7441406,0-1.581543,0.7128906-2.2631836,1.6435547v10.8203125h-2.2016602V69.3662109l2.2016602-0.4033203v8.5888672
		c0.7441406-1.2714844,1.953125-1.8916016,3.0380859-1.8916016c1.8603516,0,2.8837891,1.7050781,2.8837891,3.5654297v11.0380859
		H228.2636719z"/>
	<path class="st0" d="M235.9501953,90.2021484l-3.6894531-14.1386719h2.2011719l2.5117188,10.4794922l2.418457-10.4794922h2.2016602
		l-4.7753906,18.4482422c-0.5268555,2.015625-1.7050781,3.1005859-3.0380859,3.1005859
		c-0.6513672,0-1.3334961-0.2167969-2.046875-0.7441406l0.465332-1.953125
		c0.5581055,0.4648438,1.0229492,0.6816406,1.4262695,0.6816406c0.5888672,0,1.0541992-0.4023438,1.3022461-1.3945312
		L235.9501953,90.2021484z"/>
	<path class="st0" d="M243.7304688,87.5976562c0.8374023,0.6816406,1.7363281,1.1162109,2.6357422,1.1162109
		c1.1782227,0,1.8916016-0.8681641,1.8916016-2.015625s-0.6201172-1.921875-2.1083984-2.7900391
		c-1.8295898-1.0859375-2.9150391-2.3564453-2.9150391-4.4033203c0-2.2939453,1.7363281-3.8447266,3.9072266-3.8447266
		c1.1469727,0,2.2011719,0.4648438,2.8833008,0.9609375l-0.465332,1.984375
		c-0.7749023-0.5576172-1.5810547-0.9609375-2.4492188-0.9609375c-1.0234375,0-1.7675781,0.6826172-1.7675781,1.8291016
		c0,1.0859375,0.465332,1.7988281,1.984375,2.7285156c1.7988281,1.1162109,3.0390625,2.3876953,3.0390625,4.4648438
		c0,2.3876953-1.7363281,4-3.9379883,4c-1.1469727,0-2.3256836-0.4335938-3.1625977-1.0849609L243.7304688,87.5976562z"/>
	<path class="st0" d="M252.8134766,71.0712891c0-0.9609375,0.5576172-1.7978516,1.5810547-1.7978516
		s1.5810547,0.8369141,1.5810547,1.7978516s-0.5576172,1.7988281-1.5810547,1.7988281
		S252.8134766,72.0322266,252.8134766,71.0712891z M253.2783203,90.2636719V76.125l2.2011719-0.4023438v14.5410156H253.2783203z"/>
	<path class="st0" d="M266.1757812,89.3339844c-0.7138672,0.8369141-1.7363281,1.3330078-2.9765625,1.3330078
		c-2.9765625,0-4.6826172-2.5419922-4.6826172-7.4726562c0-4.8984375,1.7363281-7.5341797,4.8056641-7.5341797
		c1.2099609,0,2.1396484,0.4648438,2.8837891,1.2402344l-0.5263672,2.2011719
		c-0.4960938-0.8056641-1.4580078-1.4570312-2.2324219-1.4570312c-1.8613281,0-2.6357422,1.8916016-2.6357422,5.5195312
		c0,3.7207031,0.8056641,5.5185547,2.7285156,5.5185547c0.8056641,0,1.5498047-0.6201172,2.1396484-1.4570312
		L266.1757812,89.3339844z"/>
	<path class="st0" d="M277.1796875,90.5429688c-1.5810547,0.1865234-2.5732422-0.2792969-2.9453125-1.4570312h-0.1240234
		c-0.4335938,0.8681641-1.2402344,1.5810547-2.6044922,1.5810547c-1.6425781,0-2.9453125-1.6123047-2.9453125-3.8447266
		c0-2.6044922,1.6738281-4.9921875,5.5498047-5.3330078v-1.2714844c0-1.4882812-0.5263672-2.5419922-1.921875-2.5419922
		c-0.8369141,0-2.015625,0.6816406-2.9150391,1.6435547l-0.3408203-2.078125
		c0.8681641-0.9921875,2.3251953-1.5810547,3.5341797-1.5810547c2.6982422,0,3.8457031,2.1708984,3.8457031,4.4648438v7.5341797
		c0,0.7138672,0.2783203,1.0234375,1.0537109,1.0234375L277.1796875,90.5429688z M274.1103516,83.1640625
		c-2.3876953,0.4023438-3.2861328,1.8603516-3.2861328,3.4101562c0,1.3330078,0.6503906,1.984375,1.5498047,1.984375
		c0.6513672,0,1.3027344-0.6816406,1.7363281-1.3955078V83.1640625z"/>
	<path class="st0" d="M280.1542969,90.2636719V69.3662109l2.2011719-0.4033203v21.3007812H280.1542969z"/>
	<path class="st0" d="M291.2519531,86.8535156c0.9609375,1.0849609,1.8916016,1.6738281,3.1005859,1.6738281
		c1.4882812,0,2.6357422-1.1464844,2.6357422-2.9765625c0-1.7363281-0.8369141-3.0693359-2.6660156-4.1855469
		c-2.2021484-1.3330078-3.7519531-3.2861328-3.7519531-5.7978516c0-3.1005859,2.2324219-5.0849609,4.6191406-5.0849609
		c1.4580078,0,2.7597656,0.5273438,3.6904297,1.4882812l-0.6513672,2.2011719
		c-0.8369141-0.9296875-1.8291016-1.5498047-2.8837891-1.5498047c-1.5498047,0-2.5732422,1.1162109-2.5732422,2.8212891
		c0,1.6123047,0.9296875,2.8212891,3.1005859,4.1855469c2.2324219,1.3955078,3.3173828,3.3486328,3.3173828,5.8291016
		c0,3.1318359-2.1083984,5.2089844-4.8984375,5.2089844c-1.4882812,0-2.7285156-0.5888672-3.6894531-1.6123047
		L291.2519531,86.8535156z"/>
	<path class="st0" d="M304.0869141,90.2021484l-3.6904297-14.1386719h2.2021484l2.5107422,10.4794922l2.4189453-10.4794922
		h2.2011719l-4.7744141,18.4482422c-0.5273438,2.015625-1.7050781,3.1005859-3.0390625,3.1005859
		c-0.6503906,0-1.3330078-0.2167969-2.0458984-0.7441406l0.4648438-1.953125
		c0.5576172,0.4648438,1.0234375,0.6816406,1.4267578,0.6816406c0.5888672,0,1.0537109-0.4023438,1.3017578-1.3945312
		L304.0869141,90.2021484z"/>
	<path class="st0" d="M311.8671875,87.5976562c0.8369141,0.6816406,1.7363281,1.1162109,2.6347656,1.1162109
		c1.1787109,0,1.8916016-0.8681641,1.8916016-2.015625s-0.6201172-1.921875-2.1083984-2.7900391
		c-1.8291016-1.0859375-2.9140625-2.3564453-2.9140625-4.4033203c0-2.2939453,1.7363281-3.8447266,3.90625-3.8447266
		c1.1474609,0,2.2011719,0.4648438,2.8837891,0.9609375l-0.4648438,1.984375
		c-0.7753906-0.5576172-1.5810547-0.9609375-2.4501953-0.9609375c-1.0224609,0-1.7666016,0.6826172-1.7666016,1.8291016
		c0,1.0859375,0.4648438,1.7988281,1.984375,2.7285156c1.7978516,1.1162109,3.0380859,2.3876953,3.0380859,4.4648438
		c0,2.3876953-1.7363281,4-3.9375,4c-1.1474609,0-2.3251953-0.4335938-3.1621094-1.0849609L311.8671875,87.5976562z"/>
	<path class="st0" d="M326.4375,90.015625c-0.5888672,0.4033203-1.4257812,0.6513672-2.0458984,0.6513672
		c-1.5810547,0-3.1005859-0.8056641-3.1005859-4.4023438V78.203125l-1.4267578-0.1552734v-1.4882812l1.4267578-0.5585938v-3.1933594
		h2.2011719v3.2558594h2.8525391l-0.1240234,1.984375h-2.7285156v8.4335938c0,1.6435547,0.5585938,2.1699219,1.2714844,2.1699219
		c0.4648438,0,1.0234375-0.3095703,1.3945312-0.6503906L326.4375,90.015625z"/>
	<path class="st0" d="M335.6132812,89.3339844c-0.7744141,0.8369141-1.6113281,1.3330078-2.9765625,1.3330078
		c-3.0693359,0-4.7128906-2.5419922-4.7128906-7.4726562c0-4.9912109,1.984375-7.5341797,4.5273438-7.5341797
		c2.5732422,0,3.7207031,2.1396484,3.7207031,5.7675781c0,0.3720703-0.0625,1.5498047-0.1552734,2.1699219H330.1875
		c0.0625,3.4414062,0.8681641,5.0849609,2.6972656,5.0849609c0.9619141,0,1.6132812-0.6201172,2.2324219-1.4570312
		L335.6132812,89.3339844z M334.0634766,81.3339844c0-2.6660156-0.6201172-3.6894531-1.7363281-3.6894531
		c-1.0849609,0-1.984375,1.5195312-2.1083984,4.2167969h3.8447266V81.3339844z"/>
	<path class="st0" d="M350.3701172,90.2636719V79.3808594c0-1.3017578-0.4960938-1.5810547-1.3642578-1.5810547
		c-0.7441406,0-1.3945312,0.7441406-2.0771484,1.7675781v10.6962891h-2.2011719V79.3808594
		c0-1.3017578-0.4960938-1.5810547-1.3642578-1.5810547c-0.7441406,0-1.3955078,0.7441406-2.078125,1.7675781v10.6962891h-2.2011719
		V76.125l2.2011719-0.4023438v1.921875c0.7138672-1.3330078,1.7675781-1.984375,2.8535156-1.984375
		c1.3945312,0,2.2939453,1.0546875,2.6035156,2.2324219c0.7441406-1.4882812,1.8916016-2.2324219,3.0390625-2.2324219
		c1.7988281,0,2.7910156,1.7050781,2.7910156,3.5654297v11.0380859H350.3701172z"/>
	<path class="st0" d="M355.8554688,87.5976562c0.8369141,0.6816406,1.7363281,1.1162109,2.6347656,1.1162109
		c1.1787109,0,1.8916016-0.8681641,1.8916016-2.015625s-0.6201172-1.921875-2.1083984-2.7900391
		c-1.8291016-1.0859375-2.9140625-2.3564453-2.9140625-4.4033203c0-2.2939453,1.7363281-3.8447266,3.90625-3.8447266
		c1.1474609,0,2.2011719,0.4648438,2.8837891,0.9609375l-0.4648438,1.984375
		c-0.7753906-0.5576172-1.5810547-0.9609375-2.4501953-0.9609375c-1.0224609,0-1.7666016,0.6826172-1.7666016,1.8291016
		c0,1.0859375,0.4648438,1.7988281,1.984375,2.7285156c1.7978516,1.1162109,3.0380859,2.3876953,3.0380859,4.4648438
		c0,2.3876953-1.7363281,4-3.9375,4c-1.1474609,0-2.3251953-0.4335938-3.1621094-1.0849609L355.8554688,87.5976562z"/>
</g>
<g>
	<path class="st1" d="M259.6648865,62.7735596c-0.7827148,0-1.4172363-0.6347656-1.4172363-1.4174805V44.8648682
		c0-0.7827148,0.6345215-1.4174805,1.4172363-1.4174805s1.4172363,0.6347656,1.4172363,1.4174805v16.4912109
		C261.0821228,62.1387939,260.4476013,62.7735596,259.6648865,62.7735596z"/>
	<rect x="245.2082367" y="43.4099388" class="st2" width="13.0393705" height="19.3725262"/>
	<rect x="261.0822449" y="43.4099388" class="st2" width="13.0393705" height="19.3725262"/>
</g>
</svg>
