<?xml version="1.0" encoding="utf-8"?>
<!-- Generator: Adobe Illustrator 25.2.0, SVG Export Plug-In . SVG Version: 6.00 Build 0)  -->
<!DOCTYPE svg PUBLIC "-//W3C//DTD SVG 1.1//EN" "http://www.w3.org/Graphics/SVG/1.1/DTD/svg11.dtd" [
	<!ENTITY ns_extend "http://ns.adobe.com/Extensibility/1.0/">
	<!ENTITY ns_ai "http://ns.adobe.com/AdobeIllustrator/10.0/">
	<!ENTITY ns_graphs "http://ns.adobe.com/Graphs/1.0/">
	<!ENTITY ns_vars "http://ns.adobe.com/Variables/1.0/">
	<!ENTITY ns_imrep "http://ns.adobe.com/ImageReplacement/1.0/">
	<!ENTITY ns_sfw "http://ns.adobe.com/SaveForWeb/1.0/">
	<!ENTITY ns_custom "http://ns.adobe.com/GenericCustomNamespace/1.0/">
	<!ENTITY ns_adobe_xpath "http://ns.adobe.com/XPath/1.0/">
]>
<svg version="1.1" id="Layer_1" xmlns:x="&ns_extend;" xmlns:i="&ns_ai;" xmlns:graph="&ns_graphs;"
	 xmlns="http://www.w3.org/2000/svg" xmlns:xlink="http://www.w3.org/1999/xlink" x="0px" y="0px" viewBox="0 0 407 102"
	 style="enable-background:new 0 0 407 102;" xml:space="preserve">
<style type="text/css">
	.st0{fill:#B10097;}
	.st1{fill:#FFFFFF;}
	.st2{fill:#002E65;}
</style>
<metadata>
	<sfw  xmlns="&ns_sfw;">
		<slices></slices>
		<sliceSourceBounds  bottomLeftOrigin="true" height="102" width="406.1371155" x="0" y="-102"></sliceSourceBounds>
	</sfw>
</metadata>
<g>
	<path class="st0" d="M96.9000015,102H5.0999999C2.2950001,102,0,99.7050018,0,96.9000015V5.0999999
		C0,2.2950001,2.2950001,0,5.0999999,0h91.8000031C99.7050018,0,102,2.2950001,102,5.0999999v91.8000031
		C102,99.7050018,99.7050018,102,96.9000015,102z"/>
	<path class="st1" d="M65.4393311,54.0225143c0.4325027,12.3328857-4.6385117,21.2498322-15.8150101,21.2498322
		c-8.70467,0-17.5176468-6.5201035-17.5176468-19.4506874V21.144659H17.7737331v35.4050369
		c0,13.4108734,8.9826431,27.1654587,29.6760654,27.1654587c20.0859604,0,28.1678848-14.4148712,28.2588959-26.368454
		c14.665535,2.260498,21.3881149-8.6823463,19.4711151-16.1329613c-2.5612259,2.9579849-6.6571045,5.5772667-19.4536514,1.9484215
		V21.144659H65.4393311v18.5292034C45.3423157,33.076992,40.5864944,51.3857727,40.5864944,51.3857727
		S49.9853058,46.2166176,65.4393311,54.0225143"/>
</g>
<g>
	<path class="st2" d="M151.2275391,62.7890625v-19.378418h7.7514648v2.1699219h-5.4262695v6.7597656h4.2792969v2.1699219h-4.2792969
		v8.2788086H151.2275391z"/>
	<path class="st2" d="M168.5888672,63.0678711c-1.5810547,0.1865234-2.5732422-0.2788086-2.9453125-1.4570312h-0.1240234
		c-0.4345703,0.8681641-1.2402344,1.5810547-2.6044922,1.5810547c-1.6435547,0-2.9458008-1.6123047-2.9458008-3.8447266
		c0-2.6044922,1.6743164-4.9916992,5.550293-5.3330078v-1.2709961c0-1.4882812-0.5273438-2.5424805-1.9228516-2.5424805
		c-0.8369141,0-2.0151367,0.6821289-2.9140625,1.6435547l-0.3413086-2.0776367
		c0.8681641-0.9921875,2.3256836-1.581543,3.534668-1.581543c2.6972656,0,3.8447266,2.1708984,3.8447266,4.4648438v7.534668
		c0,0.7133789,0.2792969,1.0229492,1.0541992,1.0229492L168.5888672,63.0678711z M165.5195312,55.6889648
		c-2.3876953,0.402832-3.2871094,1.8603516-3.2871094,3.4101562c0,1.3334961,0.6513672,1.984375,1.5507812,1.984375
		c0.6508789,0,1.3017578-0.6816406,1.7363281-1.3950195V55.6889648z"/>
	<path class="st2" d="M178.7563477,61.8588867c-0.7133789,0.8369141-1.7363281,1.3330078-2.9765625,1.3330078
		c-2.9765625,0-4.6821289-2.5419922-4.6821289-7.472168c0-4.8989258,1.7363281-7.534668,4.8061523-7.534668
		c1.2094727,0,2.1391602,0.465332,2.8833008,1.2402344l-0.5268555,2.2016602
		c-0.4960938-0.8061523-1.4575195-1.4575195-2.2324219-1.4575195c-1.8603516,0-2.6352539,1.8916016-2.6352539,5.5195312
		c0,3.7207031,0.8056641,5.5185547,2.7285156,5.5185547c0.8056641,0,1.5498047-0.6201172,2.1391602-1.4570312
		L178.7563477,61.8588867z"/>
	<path class="st2" d="M187.4667969,63.1303711v-1.8295898c-0.7441406,1.2709961-1.953125,1.8911133-3.0380859,1.8911133
		c-1.8603516,0-2.8837891-1.7050781-2.8837891-3.5654297V48.5883789h2.2011719v10.6040039
		c0,1.3022461,0.5585938,1.8603516,1.4575195,1.8603516c0.7441406,0,1.550293-0.7133789,2.2631836-1.6430664V48.5883789h2.2016602
		v14.1386719L187.4667969,63.1303711z"/>
	<path class="st2" d="M193.2939453,62.7890625V41.8911133l2.2011719-0.4033203v21.3012695H193.2939453z"/>
	<path class="st2" d="M204.5166016,62.5410156c-0.5893555,0.402832-1.4267578,0.6508789-2.046875,0.6508789
		c-1.5810547,0-3.1005859-0.8056641-3.1005859-4.4023438v-8.0615234l-1.4257812-0.1552734v-1.4882812l1.4257812-0.5581055
		v-3.1938477h2.2016602v3.2558594h2.8525391l-0.1240234,1.984375h-2.7285156v8.4335938
		c0,1.6435547,0.5581055,2.1704102,1.2709961,2.1704102c0.465332,0,1.0234375-0.3100586,1.3955078-0.6508789L204.5166016,62.5410156
		z"/>
	<path class="st2" d="M213.7851562,61.8588867c-0.7749023,0.8369141-1.6123047,1.3330078-2.9765625,1.3330078
		c-3.0693359,0-4.7128906-2.5419922-4.7128906-7.472168c0-4.9916992,1.984375-7.534668,4.5273438-7.534668
		c2.5732422,0,3.7207031,2.1396484,3.7207031,5.7675781c0,0.3720703-0.0625,1.5498047-0.1552734,2.1699219h-5.8291016
		c0.0620117,3.4418945,0.8681641,5.0849609,2.6972656,5.0849609c0.9614258,0,1.6123047-0.6201172,2.2324219-1.4570312
		L213.7851562,61.8588867z M212.2353516,53.859375c0-2.6665039-0.6201172-3.6899414-1.7363281-3.6899414
		c-1.0854492,0-1.984375,1.5195312-2.1083984,4.2167969h3.8447266V53.859375z"/>
	<path class="st2" d="M216.9458008,43.5961914c0-0.9609375,0.5581055-1.7978516,1.581543-1.7978516
		c1.0229492,0,1.5810547,0.8369141,1.5810547,1.7978516c0,0.9614258-0.5581055,1.7988281-1.5810547,1.7988281
		C217.5039062,45.3950195,216.9458008,44.5576172,216.9458008,43.5961914z M217.4111328,62.7890625V48.6503906l2.2011719-0.402832
		v14.5415039H217.4111328z"/>
	<path class="st2" d="M228.6958008,62.5410156c-0.5893555,0.402832-1.4262695,0.6508789-2.0463867,0.6508789
		c-1.5810547,0-3.1005859-0.8056641-3.1005859-4.4023438v-8.0615234l-1.4262695-0.1552734v-1.4882812l1.4262695-0.5581055
		v-3.1938477H225.75v3.2558594h2.8525391l-0.1240234,1.984375H225.75v8.4335938
		c0,1.6435547,0.5585938,2.1704102,1.2714844,2.1704102c0.4648438,0,1.0234375-0.3100586,1.3955078-0.6508789
		L228.6958008,62.5410156z"/>
	<path class="st2" d="M238.0263672,62.7890625V45.5805664h-3.7207031v-2.1699219h9.7666016v2.1699219h-3.7207031v17.2084961
		H238.0263672z"/>
	<path class="st2" d="M244.3188477,55.7197266c0-4.8989258,1.7055664-7.534668,4.6821289-7.534668
		s4.5888672,2.5429688,4.5888672,7.4726562c0,4.8989258-1.7675781,7.5341797-4.6821289,7.5341797
		C245.9619141,63.1918945,244.3188477,60.6499023,244.3188477,55.7197266z M251.2949219,55.7197266
		c0-3.7207031-0.7441406-5.550293-2.3564453-5.550293s-2.3251953,1.8916016-2.3251953,5.5195312
		c0,3.7207031,0.7128906,5.5185547,2.3251953,5.5185547S251.2949219,59.2856445,251.2949219,55.7197266z"/>
	<path class="st2" d="M264.0361328,61.8588867c-0.7753906,0.8369141-1.6123047,1.3330078-2.9765625,1.3330078
		c-3.0693359,0-4.7128906-2.5419922-4.7128906-7.472168c0-4.9916992,1.984375-7.534668,4.5268555-7.534668
		c2.5737305,0,3.7207031,2.1396484,3.7207031,5.7675781c0,0.3720703-0.0620117,1.5498047-0.1547852,2.1699219h-5.8291016
		c0.0615234,3.4418945,0.8681641,5.0849609,2.6972656,5.0849609c0.9609375,0,1.6123047-0.6201172,2.2324219-1.4570312
		L264.0361328,61.8588867z M262.4858398,53.859375c0-2.6665039-0.6201172-3.6899414-1.7363281-3.6899414
		c-1.0854492,0-1.984375,1.5195312-2.1083984,4.2167969h3.8447266V53.859375z"/>
	<path class="st2" d="M274.296875,50.7280273c0.4648438,0.6508789,0.6816406,1.8603516,0.6816406,2.8525391
		c0,3.4414062-1.7363281,5.1777344-4.0302734,5.1777344c-0.2792969,0-0.7441406-0.03125-1.1787109-0.2480469
		c-0.4648438,0.2167969-0.8681641,0.6821289-0.8681641,1.3642578c0,0.8061523,0.6513672,1.3642578,1.8295898,1.3642578
		c0,0,0.9301758,0,0.9614258,0c2.6660156,0,4.7128906,1.1782227,4.7128906,3.8759766
		c0,2.6660156-2.2016602,5.0224609-5.3330078,5.0224609c-2.6669922,0-4.6821289-1.3642578-4.6821289-3.8754883
		c0-1.550293,1.1162109-2.7905273,2.449707-3.2246094c-1.0854492-0.3720703-1.7675781-1.550293-1.7675781-2.6352539
		c0-1.1787109,0.7128906-2.0776367,1.6743164-2.5737305c-0.9614258-0.6821289-1.6123047-2.2324219-1.6123047-4.3100586
		c0-3.5341797,1.7055664-5.3330078,3.96875-5.3330078c0.9301758,0,1.8603516,0.4345703,2.2944336,0.8374023l2.7905273-0.2480469
		l0.0932617,2.2016602L274.296875,50.7280273z M268.5605469,65.8896484c0,1.4262695,0.8681641,2.5112305,2.6972656,2.5112305
		c1.6123047,0,2.8525391-0.9921875,2.8525391-2.7900391c0-1.5195312-0.7441406-2.2324219-2.6352539-2.2324219
		c-0.3720703,0-0.9614258,0-1.3642578-0.0625C269.2734375,63.7504883,268.5605469,64.5561523,268.5605469,65.8896484z
		 M272.7773438,53.4873047c0-2.2631836-0.5888672-3.4106445-1.6435547-3.4106445
		c-0.9921875,0-1.7363281,0.8369141-1.7363281,3.5039062c0,2.4179688,0.6513672,3.4101562,1.6748047,3.4101562
		C272.0644531,56.9907227,272.7773438,56.0297852,272.7773438,53.4873047z"/>
	<path class="st2" d="M285.6113281,61.8588867c-0.7749023,0.8369141-1.6123047,1.3330078-2.9765625,1.3330078
		c-3.0693359,0-4.7128906-2.5419922-4.7128906-7.472168c0-4.9916992,1.984375-7.534668,4.5273438-7.534668
		c2.5732422,0,3.7207031,2.1396484,3.7207031,5.7675781c0,0.3720703-0.0625,1.5498047-0.1552734,2.1699219h-5.8291016
		c0.0620117,3.4418945,0.8681641,5.0849609,2.6972656,5.0849609c0.9614258,0,1.6123047-0.6201172,2.2324219-1.4570312
		L285.6113281,61.8588867z M284.0615234,53.859375c0-2.6665039-0.6201172-3.6899414-1.7363281-3.6899414
		c-1.0854492,0-1.984375,1.5195312-2.1083984,4.2167969h3.8447266V53.859375z"/>
	<path class="st2" d="M289.1748047,69.734375V48.6503906l2.2016602-0.402832v1.6430664
		c0.5893555-0.9921875,1.550293-1.7055664,2.6044922-1.7055664c2.387207,0,3.8754883,2.9765625,3.8754883,7.3173828
		c0,4.6201172-1.7050781,7.6894531-4.371582,7.6894531c-0.8374023,0-1.519043-0.1855469-2.1083984-0.5576172v7.1000977H289.1748047z
		 M291.3764648,60.4018555c0.402832,0.4648438,1.0229492,0.8056641,1.6430664,0.8056641
		c1.6123047,0,2.5429688-2.2939453,2.5429688-5.5498047c0-3.1005859-0.8681641-5.2709961-2.3564453-5.2709961
		c-0.7133789,0-1.3642578,0.5581055-1.8295898,1.3950195V60.4018555z"/>
	<path class="st2" d="M308.8613281,63.0678711c-1.5810547,0.1865234-2.5732422-0.2788086-2.9453125-1.4570312h-0.1240234
		c-0.4345703,0.8681641-1.2402344,1.5810547-2.6044922,1.5810547c-1.6435547,0-2.9458008-1.6123047-2.9458008-3.8447266
		c0-2.6044922,1.6743164-4.9916992,5.550293-5.3330078v-1.2709961c0-1.4882812-0.5273438-2.5424805-1.9228516-2.5424805
		c-0.8369141,0-2.0151367,0.6821289-2.9140625,1.6435547l-0.3413086-2.0776367
		c0.8681641-0.9921875,2.3256836-1.581543,3.534668-1.581543c2.6972656,0,3.8447266,2.1708984,3.8447266,4.4648438v7.534668
		c0,0.7133789,0.2792969,1.0229492,1.0541992,1.0229492L308.8613281,63.0678711z M305.7919922,55.6889648
		c-2.3876953,0.402832-3.2871094,1.8603516-3.2871094,3.4101562c0,1.3334961,0.6513672,1.984375,1.5507812,1.984375
		c0.6508789,0,1.3017578-0.6816406,1.7363281-1.3950195V55.6889648z"/>
	<path class="st2" d="M311.7421875,60.1225586c0.8374023,0.6821289,1.7363281,1.1162109,2.6357422,1.1162109
		c1.1782227,0,1.8916016-0.8681641,1.8916016-2.015625c0-1.1469727-0.6201172-1.921875-2.1083984-2.7900391
		c-1.8295898-1.0854492-2.9150391-2.3564453-2.9150391-4.4033203c0-2.2939453,1.7363281-3.8447266,3.9072266-3.8447266
		c1.1469727,0,2.2011719,0.465332,2.8833008,0.9614258l-0.465332,1.984375
		c-0.7749023-0.5581055-1.5810547-0.9614258-2.4492188-0.9614258c-1.0234375,0-1.7675781,0.6826172-1.7675781,1.8295898
		c0,1.0854492,0.465332,1.7983398,1.984375,2.7285156c1.7988281,1.1162109,3.0390625,2.387207,3.0390625,4.4648438
		c0,2.387207-1.7363281,3.9995117-3.9379883,3.9995117c-1.1469727,0-2.3256836-0.4335938-3.1625977-1.0849609
		L311.7421875,60.1225586z"/>
	<path class="st2" d="M326.40625,62.5410156c-0.5888672,0.402832-1.4262695,0.6508789-2.0463867,0.6508789
		c-1.581543,0-3.1005859-0.8056641-3.1005859-4.4023438v-8.0615234l-1.4262695-0.1552734v-1.4882812l1.4262695-0.5581055v-3.1938477
		h2.2016602v3.2558594h2.8525391l-0.1240234,1.984375h-2.7285156v8.4335938c0,1.6435547,0.5576172,2.1704102,1.2709961,2.1704102
		c0.465332,0,1.0229492-0.3100586,1.3950195-0.6508789L326.40625,62.5410156z"/>
	<path class="st2" d="M335.6748047,61.8588867c-0.7749023,0.8369141-1.6123047,1.3330078-2.9765625,1.3330078
		c-3.0693359,0-4.7128906-2.5419922-4.7128906-7.472168c0-4.9916992,1.984375-7.534668,4.5273438-7.534668
		c2.5732422,0,3.7207031,2.1396484,3.7207031,5.7675781c0,0.3720703-0.0625,1.5498047-0.1552734,2.1699219h-5.8291016
		c0.0620117,3.4418945,0.8681641,5.0849609,2.6972656,5.0849609c0.9614258,0,1.6123047-0.6201172,2.2324219-1.4570312
		L335.6748047,61.8588867z M334.125,53.859375c0-2.6665039-0.6201172-3.6899414-1.7363281-3.6899414
		c-1.0854492,0-1.984375,1.5195312-2.1083984,4.2167969H334.125V53.859375z"/>
	<path class="st2" d="M151.3515625,90.3891602V71.0102539h2.3251953v19.3789062H151.3515625z"/>
	<path class="st2" d="M163.5664062,90.3891602V79.7851562c0-1.3022461-0.5576172-1.8603516-1.4570312-1.8603516
		c-0.7441406,0-1.5810547,0.7133789-2.2636719,1.6430664v10.8212891h-2.2011719V76.2504883l2.2011719-0.4033203v1.8295898
		c0.7441406-1.2709961,1.9536133-1.8911133,3.0390625-1.8911133c1.8603516,0,2.8833008,1.7050781,2.8833008,3.5654297v11.0380859
		H163.5664062z"/>
	<path class="st2" d="M176.0283203,78.3276367c0.465332,0.6513672,0.6826172,1.8603516,0.6826172,2.8525391
		c0,3.4418945-1.7363281,5.1782227-4.03125,5.1782227c-0.2788086,0-0.7441406-0.0307617-1.1777344-0.2480469
		c-0.465332,0.2172852-0.8681641,0.6821289-0.8681641,1.3642578c0,0.8061523,0.6508789,1.3642578,1.8291016,1.3642578
		c0,0,0.9301758,0,0.9609375,0c2.6669922,0,4.7128906,1.1782227,4.7128906,3.8754883
		c0,2.6669922-2.2011719,5.0234375-5.3330078,5.0234375c-2.6660156,0-4.6816406-1.3642578-4.6816406-3.8759766
		c0-1.550293,1.1162109-2.7905273,2.4492188-3.2246094c-1.0849609-0.3720703-1.7670898-1.550293-1.7670898-2.6357422
		c0-1.1777344,0.7133789-2.0771484,1.6743164-2.5732422c-0.9609375-0.6821289-1.6123047-2.2324219-1.6123047-4.3095703
		c0-3.5351562,1.7050781-5.3330078,3.96875-5.3330078c0.9301758,0,1.8603516,0.4335938,2.2944336,0.8369141l2.7905273-0.2480469
		l0.0927734,2.2011719L176.0283203,78.3276367z M170.2924805,93.4897461c0,1.4262695,0.8681641,2.5117188,2.6977539,2.5117188
		c1.6123047,0,2.8525391-0.9921875,2.8525391-2.7910156c0-1.519043-0.7441406-2.2324219-2.6357422-2.2324219
		c-0.3720703,0-0.9609375,0-1.3642578-0.0615234C171.0058594,91.3500977,170.2924805,92.1567383,170.2924805,93.4897461z
		 M174.5092773,81.0874023c0-2.2636719-0.5893555-3.4106445-1.6430664-3.4106445
		c-0.9921875,0-1.7363281,0.8374023-1.7363281,3.503418c0,2.4189453,0.6508789,3.4111328,1.6738281,3.4111328
		C173.7958984,84.5913086,174.5092773,83.6298828,174.5092773,81.0874023z"/>
	<path class="st2" d="M187.34375,89.4589844c-0.7753906,0.8374023-1.6123047,1.3334961-2.9765625,1.3334961
		c-3.0698242,0-4.7128906-2.5429688-4.7128906-7.4726562c0-4.9921875,1.984375-7.5341797,4.5263672-7.5341797
		c2.5737305,0,3.7207031,2.1391602,3.7207031,5.7666016c0,0.3720703-0.0615234,1.5507812-0.1547852,2.1708984h-5.8291016
		c0.0620117,3.4414062,0.8681641,5.0849609,2.6977539,5.0849609c0.9609375,0,1.6123047-0.6201172,2.2324219-1.4575195
		L187.34375,89.4589844z M185.7929688,81.4594727c0-2.6665039-0.6201172-3.6894531-1.7363281-3.6894531
		c-1.0849609,0-1.984375,1.519043-2.1083984,4.2167969h3.8447266V81.4594727z"/>
	<path class="st2" d="M196.8291016,90.3891602V79.7851562c0-1.3022461-0.5581055-1.8603516-1.4570312-1.8603516
		c-0.7441406,0-1.581543,0.7133789-2.2636719,1.6430664v10.8212891h-2.2011719V76.2504883l2.2011719-0.4033203v1.8295898
		c0.7441406-1.2709961,1.953125-1.8911133,3.0385742-1.8911133c1.8603516,0,2.8833008,1.7050781,2.8833008,3.5654297v11.0380859
		H196.8291016z"/>
	<path class="st2" d="M202.1904297,71.1967773c0-0.9614258,0.5581055-1.7988281,1.5810547-1.7988281
		c1.0234375,0,1.581543,0.8374023,1.581543,1.7988281c0,0.9609375-0.5581055,1.7978516-1.581543,1.7978516
		C202.7485352,72.9946289,202.1904297,72.1577148,202.1904297,71.1967773z M202.6552734,90.3891602V76.2504883l2.2016602-0.4033203
		v14.5419922H202.6552734z"/>
	<path class="st2" d="M215.6767578,89.4589844c-0.7753906,0.8374023-1.6123047,1.3334961-2.9765625,1.3334961
		c-3.0693359,0-4.7128906-2.5429688-4.7128906-7.4726562c0-4.9921875,1.984375-7.5341797,4.5268555-7.5341797
		c2.5737305,0,3.7207031,2.1391602,3.7207031,5.7666016c0,0.3720703-0.0620117,1.5507812-0.1547852,2.1708984h-5.8291016
		c0.0615234,3.4414062,0.8681641,5.0849609,2.6972656,5.0849609c0.9609375,0,1.6123047-0.6201172,2.2324219-1.4575195
		L215.6767578,89.4589844z M214.1264648,81.4594727c0-2.6665039-0.6201172-3.6894531-1.7363281-3.6894531
		c-1.0854492,0-1.984375,1.519043-2.1083984,4.2167969h3.8447266V81.4594727z"/>
	<path class="st2" d="M225.1005859,90.7299805v-1.8291016c-0.7441406,1.2714844-1.9536133,1.8916016-3.0390625,1.8916016
		c-1.8603516,0-2.8833008-1.7055664-2.8833008-3.565918V76.1884766h2.2016602v10.6040039
		c0,1.3022461,0.5576172,1.8603516,1.4570312,1.8603516c0.7441406,0,1.550293-0.7128906,2.2636719-1.6435547V76.1884766h2.2011719
		v14.1386719L225.1005859,90.7299805z"/>
	<path class="st2" d="M230.9267578,90.3891602V76.2504883l2.2016602-0.4033203v2.5117188
		c0.4960938-1.6123047,1.3334961-2.5732422,2.4804688-2.5732422c0.5581055,0,1.0854492,0.2788086,1.519043,0.6508789
		l-0.4648438,2.2944336c-0.3720703-0.3408203-0.8061523-0.6821289-1.2714844-0.6821289
		c-0.8056641,0-1.6430664,1.2094727-2.2631836,3.4106445v8.9296875H230.9267578z"/>
	<path class="st2" d="M239.2036133,87.7226562c0.8374023,0.6821289,1.7363281,1.1162109,2.6352539,1.1162109
		c1.1787109,0,1.8916016-0.8681641,1.8916016-2.0151367c0-1.1474609-0.6201172-1.9228516-2.1083984-2.7910156
		c-1.8291016-1.0849609-2.9145508-2.3564453-2.9145508-4.4023438c0-2.2949219,1.7363281-3.8447266,3.9067383-3.8447266
		c1.1474609,0,2.2011719,0.4648438,2.8837891,0.9609375l-0.465332,1.984375
		c-0.7749023-0.5581055-1.581543-0.9609375-2.449707-0.9609375c-1.0229492,0-1.7670898,0.6816406-1.7670898,1.8291016
		c0,1.0849609,0.465332,1.7983398,1.984375,2.7285156c1.7983398,1.1162109,3.0385742,2.3876953,3.0385742,4.4648438
		c0,2.3876953-1.7363281,4-3.9375,4c-1.1474609,0-2.3256836-0.4345703-3.1630859-1.0854492L239.2036133,87.7226562z"/>
	<path class="st2" d="M256.5957031,90.4819336l-2.0151367-10.7275391l-2.0151367,10.7275391h-2.2324219l-2.7285156-14.293457
		h2.2011719l1.7363281,10.7280273l1.984375-10.7280273h2.1083984l1.984375,10.7280273l1.7363281-10.7280273h2.2011719
		l-2.7285156,14.293457H256.5957031z"/>
	<path class="st2" d="M271.1347656,89.4589844c-0.7753906,0.8374023-1.6123047,1.3334961-2.9765625,1.3334961
		c-3.0693359,0-4.7128906-2.5429688-4.7128906-7.4726562c0-4.9921875,1.984375-7.5341797,4.5268555-7.5341797
		c2.5737305,0,3.7207031,2.1391602,3.7207031,5.7666016c0,0.3720703-0.0620117,1.5507812-0.1547852,2.1708984h-5.8291016
		c0.0615234,3.4414062,0.8681641,5.0849609,2.6972656,5.0849609c0.9609375,0,1.6123047-0.6201172,2.2324219-1.4575195
		L271.1347656,89.4589844z M269.5844727,81.4594727c0-2.6665039-0.6201172-3.6894531-1.7363281-3.6894531
		c-1.0854492,0-1.984375,1.519043-2.1083984,4.2167969h3.8447266V81.4594727z"/>
	<path class="st2" d="M279.8457031,90.1411133c-0.5893555,0.4033203-1.4267578,0.6513672-2.046875,0.6513672
		c-1.5810547,0-3.1005859-0.8066406-3.1005859-4.4033203v-8.0615234l-1.4257812-0.1547852v-1.4882812l1.4257812-0.5581055
		v-3.1933594h2.2016602v3.2553711h2.8525391l-0.1240234,1.984375h-2.7285156v8.4335938
		c0,1.6430664,0.5581055,2.1704102,1.2709961,2.1704102c0.465332,0,1.0234375-0.3100586,1.3955078-0.6513672L279.8457031,90.1411133
		z"/>
	<path class="st2" d="M289.1142578,89.4589844c-0.7753906,0.8374023-1.6123047,1.3334961-2.9765625,1.3334961
		c-3.0698242,0-4.7128906-2.5429688-4.7128906-7.4726562c0-4.9921875,1.984375-7.5341797,4.5263672-7.5341797
		c2.5737305,0,3.7207031,2.1391602,3.7207031,5.7666016c0,0.3720703-0.0615234,1.5507812-0.1547852,2.1708984h-5.8291016
		c0.0620117,3.4414062,0.8681641,5.0849609,2.6977539,5.0849609c0.9609375,0,1.6123047-0.6201172,2.2324219-1.4575195
		L289.1142578,89.4589844z M287.5634766,81.4594727c0-2.6665039-0.6201172-3.6894531-1.7363281-3.6894531
		c-1.0849609,0-1.984375,1.519043-2.1083984,4.2167969h3.8447266V81.4594727z"/>
	<path class="st2" d="M298.5996094,90.3891602V79.7851562c0-1.3022461-0.5581055-1.8603516-1.4570312-1.8603516
		c-0.7441406,0-1.581543,0.7133789-2.2636719,1.6430664v10.8212891h-2.2011719V76.2504883l2.2011719-0.4033203v1.8295898
		c0.7441406-1.2709961,1.953125-1.8911133,3.0385742-1.8911133c1.8603516,0,2.8833008,1.7050781,2.8833008,3.5654297v11.0380859
		H298.5996094z"/>
	<path class="st2" d="M304.1782227,87.7226562c0.8374023,0.6821289,1.7363281,1.1162109,2.6352539,1.1162109
		c1.1787109,0,1.8916016-0.8681641,1.8916016-2.0151367c0-1.1474609-0.6201172-1.9228516-2.1083984-2.7910156
		c-1.8291016-1.0849609-2.9145508-2.3564453-2.9145508-4.4023438c0-2.2949219,1.7363281-3.8447266,3.9067383-3.8447266
		c1.1474609,0,2.2011719,0.4648438,2.8837891,0.9609375l-0.465332,1.984375
		c-0.7749023-0.5581055-1.581543-0.9609375-2.449707-0.9609375c-1.0229492,0-1.7670898,0.6816406-1.7670898,1.8291016
		c0,1.0849609,0.465332,1.7983398,1.984375,2.7285156c1.7983398,1.1162109,3.0385742,2.3876953,3.0385742,4.4648438
		c0,2.3876953-1.7363281,4-3.9375,4c-1.1474609,0-2.3256836-0.4345703-3.1630859-1.0854492L304.1782227,87.7226562z"/>
	<path class="st2" d="M320.8574219,89.4589844c-0.7133789,0.8374023-1.7363281,1.3334961-2.9765625,1.3334961
		c-2.9765625,0-4.6821289-2.5429688-4.6821289-7.4726562c0-4.8989258,1.7363281-7.5341797,4.8061523-7.5341797
		c1.2089844,0,2.1391602,0.4648438,2.8833008,1.2402344l-0.5268555,2.2011719
		c-0.4960938-0.8061523-1.4575195-1.4570312-2.2324219-1.4570312c-1.8603516,0-2.6357422,1.8911133-2.6357422,5.5185547
		c0,3.7207031,0.8061523,5.5195312,2.7285156,5.5195312c0.8061523,0,1.550293-0.6201172,2.1396484-1.4575195L320.8574219,89.4589844
		z"/>
	<path class="st2" d="M329.6298828,90.3891602V79.7851562c0-1.3022461-0.5581055-1.8603516-1.4570312-1.8603516
		c-0.7441406,0-1.581543,0.7133789-2.2636719,1.6430664v10.8212891h-2.2011719V69.4912109l2.2011719-0.402832v8.5883789
		c0.7441406-1.2709961,1.953125-1.8911133,3.0385742-1.8911133c1.8603516,0,2.8833008,1.7050781,2.8833008,3.5654297v11.0380859
		H329.6298828z"/>
	<path class="st2" d="M343.3320312,90.668457c-1.5810547,0.1855469-2.5732422-0.2792969-2.9453125-1.4575195h-0.1240234
		c-0.4345703,0.8681641-1.2402344,1.581543-2.6044922,1.581543c-1.6435547,0-2.9458008-1.6123047-2.9458008-3.8447266
		c0-2.6044922,1.6743164-4.9921875,5.550293-5.3330078v-1.2714844c0-1.4882812-0.5273438-2.5424805-1.9228516-2.5424805
		c-0.8369141,0-2.0151367,0.6821289-2.9140625,1.6430664l-0.3413086-2.0771484
		c0.8681641-0.9921875,2.3256836-1.5810547,3.534668-1.5810547c2.6972656,0,3.8447266,2.1699219,3.8447266,4.4648438v7.5341797
		c0,0.7128906,0.2792969,1.0234375,1.0541992,1.0234375L343.3320312,90.668457z M340.2626953,83.2885742
		c-2.3876953,0.4033203-3.2871094,1.8603516-3.2871094,3.4111328c0,1.3330078,0.6513672,1.984375,1.5507812,1.984375
		c0.6508789,0,1.3017578-0.6826172,1.7363281-1.3955078V83.2885742z"/>
	<path class="st2" d="M346.3994141,97.3344727V76.2504883l2.2011719-0.4033203v1.6435547
		c0.5888672-0.9921875,1.550293-1.7050781,2.6044922-1.7050781c2.3876953,0,3.8759766,2.9765625,3.8759766,7.3173828
		c0,4.6196289-1.7055664,7.6894531-4.3720703,7.6894531c-0.8369141,0-1.5195312-0.1865234-2.1083984-0.5585938v7.1005859
		H346.3994141z M348.6005859,88.0014648c0.4033203,0.465332,1.0234375,0.8066406,1.6435547,0.8066406
		c1.6123047,0,2.5419922-2.2949219,2.5419922-5.550293c0-3.1005859-0.8681641-5.2709961-2.3564453-5.2709961
		c-0.7128906,0-1.3642578,0.5581055-1.8291016,1.3955078V88.0014648z"/>
	<path class="st2" d="M358.1479492,97.3344727V76.2504883l2.2016602-0.4033203v1.6435547
		c0.5888672-0.9921875,1.5498047-1.7050781,2.6044922-1.7050781c2.387207,0,3.8754883,2.9765625,3.8754883,7.3173828
		c0,4.6196289-1.7055664,7.6894531-4.371582,7.6894531c-0.8374023,0-1.5195312-0.1865234-2.1083984-0.5585938v7.1005859H358.1479492
		z M360.3496094,88.0014648c0.402832,0.465332,1.0229492,0.8066406,1.6430664,0.8066406
		c1.6123047,0,2.5424805-2.2949219,2.5424805-5.550293c0-3.1005859-0.8681641-5.2709961-2.3564453-5.2709961
		c-0.7128906,0-1.3642578,0.5581055-1.8291016,1.3955078V88.0014648z"/>
	<path class="st2" d="M377.2758789,89.4589844c-0.7749023,0.8374023-1.6123047,1.3334961-2.9765625,1.3334961
		c-3.0698242,0-4.7128906-2.5429688-4.7128906-7.4726562c0-4.9921875,1.984375-7.5341797,4.5268555-7.5341797
		c2.5732422,0,3.7207031,2.1391602,3.7207031,5.7666016c0,0.3720703-0.0620117,1.5507812-0.1552734,2.1708984h-5.8291016
		c0.0625,3.4414062,0.8681641,5.0849609,2.6977539,5.0849609c0.9614258,0,1.6123047-0.6201172,2.2324219-1.4575195
		L377.2758789,89.4589844z M375.7255859,81.4594727c0-2.6665039-0.6201172-3.6894531-1.7363281-3.6894531
		c-1.0849609,0-1.984375,1.519043-2.1083984,4.2167969h3.8447266V81.4594727z"/>
	<path class="st2" d="M386.7617188,90.3891602V79.7851562c0-1.3022461-0.5585938-1.8603516-1.4575195-1.8603516
		c-0.7441406,0-1.581543,0.7133789-2.2631836,1.6430664v10.8212891h-2.2016602V76.2504883l2.2016602-0.4033203v1.8295898
		c0.7441406-1.2709961,1.953125-1.8911133,3.0380859-1.8911133c1.8603516,0,2.8837891,1.7050781,2.8837891,3.5654297v11.0380859
		H386.7617188z"/>
</g>
<path class="st0" d="M130.9607391,90.3341751c-1.5654297,0-2.8347168-1.269043-2.8347168-2.8344727V46.198925
	c0-1.5654297,1.2692871-2.8344727,2.8347168-2.8344727s2.8347168,1.269043,2.8347168,2.8344727v41.3007774
	C133.7954559,89.0651321,132.5261688,90.3341751,130.9607391,90.3341751z"/>
<g>
	<path class="st2" d="M135.484787,29.5454693c-4.046875,0-7.2773438-2.1015625-7.2773438-6.4375V11.3628511h3.7832031v11.2978525
		c0,2.8378906,2.1289062,3.9160156,3.9414062,3.9160156c1.9433594,0,3.7578125-1.078125,3.7578125-3.8105469V11.3628511h3.7304688
		v11.4033213C143.4203339,27.1802349,140.2679901,29.5454693,135.484787,29.5454693z"/>
	<path class="st2" d="M156.1957245,29.2300396v-8.0927734c0-1.8652344-0.9980469-2.8115234-2.6542969-2.8115234
		c-0.9453125,0-1.8652344,0.2890625-2.5214844,0.7099609v10.1943359h-3.4960938V15.961484l3.3632812-0.2636719l-0.0507812,1.8398447
		h0.1035156c0.9726562-1.078125,2.5761719-2.0234385,4.4160156-2.0234385c2.3632812,0,4.3085938,1.5761728,4.3085938,4.5976572
		v9.1181641H156.1957245z"/>
	<path class="st2" d="M165.1078339,13.3599215c-1,0-1.8398438-0.8417969-1.8398438-1.8652344
		c0-1.0253906,0.8398438-1.8134766,1.8398438-1.8134766c1.0234375,0,1.8378906,0.7880859,1.8378906,1.8134766
		C166.9457245,12.5181246,166.1312714,13.3599215,165.1078339,13.3599215z M163.3461151,29.2300396V15.829648h3.5214844v13.4003916
		H163.3461151z"/>
	<path class="st2" d="M177.0648651,29.3091412h-2.9433594l-5.3613281-13.4794931h3.9414062l2.3925781,7.0947275
		c0.3925781,1.1035156,0.7089844,2.9951172,0.7089844,2.9951172s0.3144531-1.8662109,0.7089844-2.9951172l2.390625-7.0947275
		h3.546875L177.0648651,29.3091412z"/>
	<path class="st2" d="M195.5394745,23.0288677h-8.8808594c0.078125,2.2070312,1.5507812,3.8886719,4.0195312,3.8886719
		c1.5761719,0,2.9960938-0.3408203,4.5722656-0.9462891l-0.1582031,2.4707031
		c-1.6289062,0.65625-3.2304688,1.0771484-5.359375,1.0771484c-4.0214844,0-6.4648438-2.7851562-6.4648438-6.7265625
		c0-4.2832031,2.7851562-7.2783213,6.7265625-7.2783213c3.8105469,0,5.6757812,2.6015635,5.6757812,5.5966806
		C195.6703339,21.7153912,195.6175995,22.5562115,195.5394745,23.0288677z M189.7054901,17.8003521
		c-1.6816406,0-2.7324219,1.6025391-2.9160156,3.2060547h5.6484375
		C192.437912,19.244688,191.4398651,17.8003521,189.7054901,17.8003521z"/>
	<path class="st2" d="M206.2894745,19.4819927c-0.6835938-0.3945312-1.5761719-0.6572266-2.4160156-0.6572266
		c-0.8144531,0-1.6035156,0.3417969-2.0507812,0.8144531v9.5908203h-3.4941406V15.961484l3.3105469-0.2890625l-0.1054688,2.390626
		h0.1054688c0.6835938-1.4980469,1.9707031-2.5488291,3.4160156-2.5488291c0.6308594,0,1.3398438,0.1582031,1.7871094,0.4199219
		L206.2894745,19.4819927z"/>
	<path class="st2" d="M212.047287,29.5191021c-1.734375,0-3.1269531-0.3681641-4.2832031-0.9990234l0.3945312-2.6269531
		c1.2070312,0.6308594,2.7050781,1.0507812,3.9941406,1.0507812c1.1035156,0,2.1015625-0.3671875,2.1015625-1.3398438
		c0-2.1289062-6.0703125-1.6552734-6.0703125-5.9384766c0-2.7060547,2.4707031-4.1513681,5.3339844-4.1513681
		c1.4199219,0,2.890625,0.3945312,3.8632812,0.8144541l-0.3945312,2.5224609
		c-1.0253906-0.3935547-2.390625-0.7617188-3.6523438-0.7617188c-0.9453125,0-1.7597656,0.3681641-1.7597656,1.1298828
		c0,2.1015625,6.0957031,1.6816406,6.0957031,5.9121094C217.6703339,28.0474224,215.1215057,29.5191021,212.047287,29.5191021z"/>
	<path class="st2" d="M222.1918182,13.3599215c-1,0-1.8398438-0.8417969-1.8398438-1.8652344
		c0-1.0253906,0.8398438-1.8134766,1.8398438-1.8134766c1.0234375,0,1.8378906,0.7880859,1.8378906,1.8134766
		C224.0297089,12.5181246,223.2152557,13.3599215,222.1918182,13.3599215z M220.4300995,29.2300396V15.829648h3.5214844v13.4003916
		H220.4300995z"/>
	<path class="st2" d="M231.7582245,29.5191021c-2.3652344,0-3.8886719-1.4716797-3.8886719-3.7314453
		c0-0.7617188,0.078125-4.2558594,0.078125-6.3583984v-1.1298828h-1.2617188v-1.3662109l4.3359375-4.0205088h0.3417969v2.9169922
		h4.2558594v2.4697275h-4.2558594c0,0.2099609-0.0527344,4.4931641-0.0527344,6.3066406
		c0,1.4179688,0.8417969,2.0488281,2.1289062,2.0488281c0.6835938,0,1.4980469-0.078125,2.2851562-0.3417969v2.4179688
		C234.5961151,29.2036724,233.2562714,29.5191021,231.7582245,29.5191021z"/>
	<path class="st2" d="M249.1800995,23.0288677h-8.8808594c0.0800781,2.2070312,1.5507812,3.8886719,4.0214844,3.8886719
		c1.5761719,0,2.9941406-0.3408203,4.5703125-0.9462891l-0.15625,2.4707031
		c-1.6289062,0.65625-3.2324219,1.0771484-5.3613281,1.0771484c-4.0195312,0-6.4628906-2.7851562-6.4628906-6.7265625
		c0-4.2832031,2.7851562-7.2783213,6.7265625-7.2783213c3.8105469,0,5.6757812,2.6015635,5.6757812,5.5966806
		C249.312912,21.7153912,249.2601776,22.5562115,249.1800995,23.0288677z M243.3480682,17.8003521
		c-1.6816406,0-2.7324219,1.6025391-2.9160156,3.2060547h5.6484375
		C246.0804901,19.244688,245.0824432,17.8003521,243.3480682,17.8003521z"/>
	<path class="st2" d="M253.8090057,13.3599215c-1,0-1.8398438-0.8417969-1.8398438-1.8652344
		c0-1.0253906,0.8398438-1.8134766,1.8398438-1.8134766c1.0234375,0,1.8378906,0.7880859,1.8378906,1.8134766
		C255.6468964,12.5181246,254.8324432,13.3599215,253.8090057,13.3599215z M252.047287,29.2300396V15.829648h3.5214844v13.4003916
		H252.047287z"/>
	<path class="st2" d="M263.3753967,29.5191021c-2.3652344,0-3.8886719-1.4716797-3.8886719-3.7314453
		c0-0.7617188,0.078125-4.2558594,0.078125-6.3583984v-1.1298828h-1.2617188v-1.3662109l4.3359375-4.0205088h0.3417969v2.9169922
		h4.2558594v2.4697275h-4.2558594c0,0.2099609-0.0527344,4.4931641-0.0527344,6.3066406
		c0,1.4179688,0.8417969,2.0488281,2.1289062,2.0488281c0.6835938,0,1.4980469-0.078125,2.2851562-0.3417969v2.4179688
		C266.2132874,29.2036724,264.8734436,29.5191021,263.3753967,29.5191021z"/>
	<path class="st2" d="M286.394928,29.2300396l-1.6289062-4.703125h-5.9648438l-1.5761719,4.703125h-3.8632812l6.4902344-17.8671875
		h4.1523438l6.4902344,17.8671875H286.394928z M282.2171936,16.6177349
		c-0.2363281-0.7089853-0.4472656-2.1015635-0.4472656-2.1015635s-0.2089844,1.3398438-0.4726562,2.1015635l-1.8378906,5.3603516
		h4.6230469L282.2171936,16.6177349z"/>
	<path class="st2" d="M301.2464905,29.2300396v-8.0927734c0-1.8652344-0.9980469-2.8115234-2.6542969-2.8115234
		c-0.9453125,0-1.8652344,0.2890625-2.5214844,0.7099609v10.1943359h-3.4960938V15.961484l3.3632812-0.2636719l-0.0507812,1.8398447
		h0.1035156c0.9726562-1.078125,2.5761719-2.0234385,4.4160156-2.0234385c2.3632812,0,4.3085938,1.5761728,4.3085938,4.5976572
		v9.1181641H301.2464905z"/>
	<path class="st2" d="M312.3128967,29.5191021c-2.3652344,0-3.8886719-1.4716797-3.8886719-3.7314453
		c0-0.7617188,0.078125-4.2558594,0.078125-6.3583984v-1.1298828h-1.2617188v-1.3662109l4.3359375-4.0205088h0.3417969v2.9169922
		h4.2558594v2.4697275h-4.2558594c0,0.2099609-0.0527344,4.4931641-0.0527344,6.3066406
		c0,1.4179688,0.8417969,2.0488281,2.1289062,2.0488281c0.6835938,0,1.4980469-0.078125,2.2851562-0.3417969v2.4179688
		C315.1507874,29.2036724,313.8109436,29.5191021,312.3128967,29.5191021z"/>
	<path class="st2" d="M333.3363342,29.3091412h-2.7851562l-2.5488281-6.6484375
		c-0.3945312-1.0244141-0.6582031-2.7851562-0.6582031-2.7851562s-0.3945312,1.734375-0.7617188,2.7851562l-2.4707031,6.6484375
		h-2.7050781l-4.5976562-13.4794931h3.8359375l1.890625,6.5947275c0.3164062,1.0507812,0.6308594,3.0742188,0.6308594,3.0742188
		s0.3945312-1.9707031,0.7617188-3.0478516l2.3398438-6.6210947h2.5742188l2.4433594,6.6210947
		c0.4199219,1.0771484,0.7363281,2.9951172,0.7363281,2.9951172s0.2890625-1.9707031,0.6308594-3.046875l1.8652344-6.5693369
		h3.4414062L333.3363342,29.3091412z"/>
	<path class="st2" d="M351.2601624,23.0288677h-8.8808594c0.078125,2.2070312,1.5507812,3.8886719,4.0195312,3.8886719
		c1.5761719,0,2.9960938-0.3408203,4.5722656-0.9462891l-0.1582031,2.4707031
		c-1.6289062,0.65625-3.2304688,1.0771484-5.359375,1.0771484c-4.0214844,0-6.4648438-2.7851562-6.4648438-6.7265625
		c0-4.2832031,2.7851562-7.2783213,6.7265625-7.2783213c3.8105469,0,5.6757812,2.6015635,5.6757812,5.5966806
		C351.3910217,21.7153912,351.3382874,22.5562115,351.2601624,23.0288677z M345.426178,17.8003521
		c-1.6816406,0-2.7324219,1.6025391-2.9160156,3.2060547h5.6484375
		C348.1585999,19.244688,347.160553,17.8003521,345.426178,17.8003521z"/>
	<path class="st2" d="M362.0101624,19.4819927c-0.6835938-0.3945312-1.5761719-0.6572266-2.4160156-0.6572266
		c-0.8144531,0-1.6035156,0.3417969-2.0507812,0.8144531v9.5908203h-3.4941406V15.961484l3.3105469-0.2890625l-0.1054688,2.390626
		h0.1054688c0.6835938-1.4980469,1.9707031-2.5488291,3.4160156-2.5488291c0.6308594,0,1.3398438,0.1582031,1.7871094,0.4199219
		L362.0101624,19.4819927z"/>
	<path class="st2" d="M370.0277405,29.4146099c-0.7363281,0-1.5507812-0.1845703-1.9980469-0.4208984v6.9365215h-3.4941406
		v-19.96875l3.3632812-0.2636719l-0.0527344,1.7871103h0.1054688c0.9726562-1.1826172,2.4960938-1.9707041,3.9941406-1.9707041
		c3.3105469,0,5.4121094,2.8115244,5.4121094,6.5429697C377.3578186,26.4712505,374.4945374,29.4146099,370.0277405,29.4146099z
		 M370.4203186,18.2730083c-0.8925781,0-1.7851562,0.2890625-2.390625,0.7099609v7.3828125
		c0.5,0.3417969,1.3925781,0.578125,2.1542969,0.578125c2.3125,0,3.6269531-1.8398438,3.6269531-4.2832031
		C373.8109436,19.9282818,372.4710999,18.2730083,370.4203186,18.2730083z"/>
	<path class="st2" d="M391.2093811,23.0288677h-8.8808594c0.078125,2.2070312,1.5507812,3.8886719,4.0195312,3.8886719
		c1.5761719,0,2.9960938-0.3408203,4.5722656-0.9462891l-0.1582031,2.4707031
		c-1.6289062,0.65625-3.2304688,1.0771484-5.359375,1.0771484c-4.0214844,0-6.4648438-2.7851562-6.4648438-6.7265625
		c0-4.2832031,2.7851562-7.2783213,6.7265625-7.2783213c3.8105469,0,5.6757812,2.6015635,5.6757812,5.5966806
		C391.3402405,21.7153912,391.2875061,22.5562115,391.2093811,23.0288677z M385.3753967,17.8003521
		c-1.6816406,0-2.7324219,1.6025391-2.9160156,3.2060547h5.6484375
		C388.1078186,19.244688,387.1097717,17.8003521,385.3753967,17.8003521z"/>
	<path class="st2" d="M402.6683655,29.2300396v-8.0927734c0-1.8652344-0.9980469-2.8115234-2.6542969-2.8115234
		c-0.9453125,0-1.8652344,0.2890625-2.5214844,0.7099609v10.1943359h-3.4960938V15.961484l3.3632812-0.2636719l-0.0507812,1.8398447
		h0.1035156c0.9726562-1.078125,2.5761719-2.0234385,4.4160156-2.0234385c2.3632812,0,4.3085938,1.5761728,4.3085938,4.5976572
		v9.1181641H402.6683655z"/>
</g>
</svg>
